Coordinates
version=1
nRows=24
nColumns=24
inDegrees=yes

Units are S.I. units (second, meters, Newtons, ...)
Angles are in degrees.

endheader
time	pelvis_tilt	pelvis_list	pelvis_rotation	pelvis_tx	pelvis_ty	pelvis_tz	hip_flexion_r	hip_adduction_r	hip_rotation_r	knee_angle_r	ankle_angle_r	subtalar_angle_r	mtp_angle_r	hip_flexion_l	hip_adduction_l	hip_rotation_l	knee_angle_l	ankle_angle_l	subtalar_angle_l	mtp_angle_l	lumbar_extension	lumbar_bending	lumbar_rotation
      1.05866667	     -0.02112343	     -4.06148758	     -2.23692896	      0.38577289	      1.00558457	      0.30577342	     14.56361959	      7.72037991	     -2.41429410	    -21.55837230	      0.43275694	    -16.24124865	     -1.20951638	     19.48089985	     -9.29614885	     -5.76837038	    -82.59745620	      3.84095410	     -1.87493431	     -3.57710220	    -11.26121427	      6.49416971	      3.37745813
      1.06283333	      0.24985707	     -3.95592072	     -2.45664484	      0.39067775	      1.00713371	      0.30645570	     13.74137723	      7.67593265	     -2.12820379	    -21.15021688	      0.51907970	    -16.21458039	     -1.19502597	     19.82480217	     -9.22874820	     -5.94622899	    -82.39728376	      3.96163999	     -1.74261596	     -3.66694589	    -11.58226336	      6.30012579	      3.62292976
      1.06700000	      0.40412768	     -3.84965824	     -2.63355778	      0.39554696	      1.00843024	      0.30701949	     13.06569346	      7.60266390	     -1.93684794	    -20.76662539	      0.53618208	    -16.07775765	     -1.18692538	     20.31486205	     -9.14653895	     -6.07248691	    -82.18146280	      4.14462697	     -1.56625239	     -3.71032050	    -11.76104671	      6.11259654	      3.74842760
      1.07116667	      0.70247427	     -3.73494820	     -2.85094307	      0.40042014	      1.00999909	      0.30773080	     12.21010712	      7.53304784	     -1.66142360	    -20.34316418	      0.63392649	    -16.02477864	     -1.17500010	     20.59820300	     -9.08320615	     -6.27739643	    -81.85828083	      4.24363931	     -1.47979950	     -3.78965752	    -12.11553530	      5.88679140	      4.00889882
      1.07533333	      0.91927770	     -3.62766531	     -3.04200269	      0.40527681	      1.01137528	      0.30835256	     11.45389936	      7.45441813	     -1.43506270	    -19.93322096	      0.68527303	    -15.93347071	     -1.16534019	     20.97733664	     -9.01671145	     -6.44636939	    -81.51115104	      4.36491621	     -1.37373725	     -3.86292559	    -12.36844748	      5.69292420	      4.18098979
      1.07950000	      1.11614420	     -3.51392650	     -3.23061543	      0.41011884	      1.01270390	      0.30896080	     10.72327841	      7.35980565	     -1.22624796	    -19.52505663	      0.73213221	    -15.81814556	     -1.15670735	     21.36476315	     -8.94504342	     -6.62191512	    -81.10680912	      4.45876109	     -1.32253197	     -3.93860644	    -12.59978141	      5.48416757	      4.35393810
      1.08366667	      1.32086445	     -3.41027344	     -3.41239172	      0.41492229	      1.01399242	      0.30956111	      9.98709808	      7.26797476	     -1.03037015	    -19.11796500	      0.79306614	    -15.68628531	     -1.15028016	     21.73645671	     -8.88790188	     -6.79657892	    -80.66072023	      4.55734745	     -1.26197858	     -4.00509853	    -12.84409696	      5.28860653	      4.51490032
      1.08783333	      1.49353351	     -3.30286866	     -3.59125316	      0.41972560	      1.01520952	      0.31014445	      9.29083824	      7.16587206	     -0.84659282	    -18.71871388	      0.85009746	    -15.55139626	     -1.14584361	     22.12836508	     -8.82756039	     -6.97427826	    -80.16042772	      4.62412530	     -1.25883106	     -4.07098629	    -13.04747901	      5.08210683	      4.66716918
      1.09200000	      1.66357652	     -3.20289128	     -3.76294658	      0.42451393	      1.01638259	      0.31070396	      8.59753002	      7.06333986	     -0.67785477	    -18.31434038	      0.90622777	    -15.39754550	     -1.14318787	     22.51086528	     -8.77526537	     -7.14919401	    -79.61369979	      4.69241906	     -1.25303438	     -4.13405330	    -13.24825040	      4.89708261	      4.80857094
      1.09616667	      1.81015440	     -3.09721886	     -3.93487866	      0.42927906	      1.01748036	      0.31126091	      7.94056979	      6.94983929	     -0.52251087	    -17.92812332	      0.97416869	    -15.23035576	     -1.14201144	     22.90521788	     -8.71957733	     -7.32947309	    -79.01778174	      4.74244236	     -1.28027055	     -4.19462530	    -13.42394394	      4.70035066	      4.94087493
      1.10033333	      1.95745981	     -3.01121111	     -4.09887152	      0.43402712	      1.01853422	      0.31180092	      7.28090550	      6.85152939	     -0.37754276	    -17.53437475	      1.03637586	    -15.05621627	     -1.14255351	     23.28685390	     -8.68695335	     -7.50415270	    -78.38053764	      4.79423589	     -1.31279571	     -4.25489381	    -13.60257266	      4.52574727	      5.07555706
      1.10450000	      2.07511124	     -2.91434945	     -4.26459467	      0.43877052	      1.01950522	      0.31232971	      6.66314358	      6.73671194	     -0.24854084	    -17.15704283	      1.10985234	    -14.86401206	     -1.14347954	     23.68331961	     -8.64421590	     -7.68662194	    -77.69085821	      4.83136850	     -1.37624518	     -4.31020556	    -13.74623858	      4.34337434	      5.18871083
      1.10866667	      2.18165268	     -2.83473876	     -4.42030089	      0.44349931	      1.02041364	      0.31283637	      6.05882109	      6.63576923	     -0.13573786	    -16.77976522	      1.18202739	    -14.66202609	     -1.14609528	     24.08004635	     -8.61872896	     -7.85766944	    -76.96109426	      4.86513846	     -1.45137861	     -4.36720299	    -13.87871370	      4.17590766	      5.30979751
      1.11283333	      2.27500870	     -2.75507219	     -4.57957262	      0.44822181	      1.02126164	      0.31333676	      5.47415442	      6.53113035	     -0.02872138	    -16.41100864	      1.25851377	    -14.45733319	     -1.14873303	     24.47140314	     -8.59662266	     -8.03798596	    -76.18205104	      4.89772072	     -1.53501486	     -4.42291898	    -13.99500592	      4.01929465	      5.41471314
      1.11700000	      2.34791653	     -2.68386237	     -4.73328753	      0.45293177	      1.02202638	      0.31383661	      4.91612666	      6.43407415	      0.06604202	    -16.04847141	      1.33869456	    -14.23953255	     -1.15148215	     24.87162577	     -8.58563235	     -8.21388086	    -75.36229684	      4.92395023	     -1.64410286	     -4.47676058	    -14.09168787	      3.85988054	      5.52168342
      1.12116667	      2.33538261	     -2.65853639	     -4.86620480	      0.45763502	      1.02258000	      0.31426662	      4.45098210	      6.38818126	      0.14061335	    -15.68523668	      1.35787022	    -14.04385283	     -1.15175400	     25.36730312	     -8.61946078	     -8.34459064	    -74.53175256	      4.96866831	     -1.72610624	     -4.50138700	    -14.09263595	      3.79778731	      5.57357910
      1.12533333	      2.41918295	     -2.55534974	     -5.04406955	      0.46234807	      1.02331178	      0.31478185	      3.89878535	      6.24737576	      0.23092453	    -15.35897693	      1.52134577	    -13.79033559	     -1.15339013	     25.69631392	     -8.58334913	     -8.57290826	    -73.58690759	      4.97109343	     -1.89275065	     -4.55854119	    -14.19514022	      3.58907047	      5.72092003
      1.12950000	      2.48534509	     -2.50369471	     -5.19850041	      0.46705194	      1.02394856	      0.31525654	      3.35404786	      6.16151295	      0.30651379	    -15.00400320	      1.59227865	    -13.57130279	     -1.15592960	     26.03976239	     -8.59751337	     -8.76248676	    -72.62332813	      4.99490956	     -2.02892445	     -4.61913047	    -14.28202161	      3.46171309	      5.83699630
      1.13366667	      2.48689737	     -2.46462965	     -5.34890998	      0.47174929	      1.02442231	      0.31572001	      2.88865983	      6.09351581	      0.37798883	    -14.66997776	      1.67629986	    -13.35482110	     -1.15737518	     26.44343032	     -8.62722119	     -8.93940270	    -71.63039195	      5.02054513	     -2.17875867	     -4.67690881	    -14.29779674	      3.35614848	      5.92625451
      1.13783333	      2.48992370	     -2.42775294	     -5.49979921	      0.47643908	      1.02485354	      0.31617559	      2.42498199	      6.02551318	      0.44759594	    -14.34117283	      1.76541180	    -13.13362134	     -1.15756173	     26.82318235	     -8.65815046	     -9.12035470	    -70.59018733	      5.04100362	     -2.34888809	     -4.73901269	    -14.31857847	      3.24852476	      6.02790584
      1.14200000	      2.51052064	     -2.39515030	     -5.65086614	      0.48112730	      1.02527198	      0.31662436	      1.94359719	      5.95766214	      0.51353116	    -14.01433494	      1.85435580	    -12.91462126	     -1.15732411	     27.15934202	     -8.69243324	     -9.30941635	    -69.50028955	      5.06142327	     -2.53040811	     -4.80691899	    -14.35778822	      3.14387172	      6.12861470
      1.14616667	      2.49001339	     -2.37907878	     -5.79808387	      0.48582432	      1.02557114	      0.31706516	      1.51081677	      5.91144139	      0.57664706	    -13.69938652	      1.93924301	    -12.71506042	     -1.15583599	     27.52327203	     -8.74560972	     -9.49000460	    -68.37727453	      5.08442578	     -2.72332043	     -4.87314132	    -14.34786698	      3.06685604	      6.21891830
      1.15033333	      2.48681981	     -2.36435566	     -5.94987619	      0.49050795	      1.02585435	      0.31750353	      1.06279043	      5.86272944	      0.64453963	    -13.38933437	      2.03373332	    -12.50708045	     -1.15370646	     27.84447870	     -8.79889139	     -9.67987578	    -67.20634224	      5.09934171	     -2.93847959	     -4.94700391	    -14.36368979	      2.98706429	      6.32392853
      1.15450000	      2.45067392	     -2.35713158	     -6.09962365	      0.49522649	      1.02604635	      0.31793860	      0.65262471	      5.82436332	      0.70234804	    -13.08884902	      2.12053103	    -12.32042794	     -1.15058315	     28.17804670	     -8.86245478	     -9.87184182	    -65.99389835	      5.11304852	     -3.16691739	     -5.01838190	    -14.33306814	      2.92141965	      6.41482243
